<?xml version="1.0" encoding="UTF-8"?>
<svg id="Layer_1" data-name="Layer 1" xmlns="http://www.w3.org/2000/svg" xmlns:xlink="http://www.w3.org/1999/xlink" viewBox="0 0 840 595.44">
  <defs>
    <style>
      .cls-1 {
        fill: none;
      }

      .cls-1, .cls-2, .cls-3 {
        stroke-width: 0px;
      }

      .cls-2 {
        fill: #0b75ff;
      }

      .cls-3 {
        fill: #0054c5;
      }
    </style>
    <clipPath id="clippath">
      <rect class="cls-1" width="840" height="595.44"/>
    </clipPath>
  </defs>
  <path class="cls-2" d="m511.44,369.52c13.12.05,22.83,11.98,20.21,24.83-1.94,9.51-10.51,16.49-20.21,16.45-13.12-.05-22.83-11.98-20.21-24.83,1.94-9.51,10.5-16.48,20.21-16.45"/>
  <path class="cls-3" d="m318.55,249.29s-21.02,77.05-3.96,102.61c3.15,4.72,11.33,20.28,18.32,25.62,0,0,83.36,9.36,113.21,11.31,0,0-40.84-34.27-66.19-72.46,0,0-26.62-35.21-35.11-72.16,0,0-6.69-30.29,21.45-45.17,0,0-41.51,17.38-47.72,50.25"/>
  <path class="cls-2" d="m349.46,387.8s67.59,39.75,137.11-25.66c0,0,48.13-40.03,26.48-92.76,0,0-12.25-36.65-31.28-60.25,0,0,42.99,50.6-51.42,120.32,0,0-44.35,38-85.11,33.73,0,0-26.22-3.09-34.75-20.47,0,0,3.99,16.91,18.26,31.39,0,0,8.71,8.37,20.72,13.69"/>
  <path class="cls-2" d="m412.55,185.41c-10.45,1.23-20.46,4.7-29.75,7.19-7.44,2-19.38,7.26-28.89,13.05-11.6,7.06-18.79,14.56-18.79,14.56,124.02-11.61,176.01,43.77,176.01,43.77-13.07-33.86-26.48-53.45-38.15-64.71,0,0-19.89-18.62-60.42-13.86"/>
  <path class="cls-3" d="m366.02,199.15c-4.13,1.97-8.32,4.2-12.11,6.51-11.6,7.06-18.79,14.56-18.79,14.56,4.17-.39,8.25-.7,12.25-.95,3.01-7.32,8.64-14.8,18.91-20.23,0,0-.09.04-.25.11Z"/>
  <path class="cls-3" d="m482.02,209.44c1.76,2.25,12.1,16.64,8.91,39.3,13.21,8.05,19.67,14.7,20.16,15.21-.28-.73-.58-1.53-.91-2.39-8.1-20.54-16.31-35.66-24.15-46.79-1.3-1.84-2.64-3.62-4.02-5.34-.16-.21-.25-.31-.25-.31.08.1.17.21.25.31Z"/>
</svg>